<?xml version="1.0" encoding="iso-8859-1"?>
<!-- Generator: Adobe Illustrator 19.0.0, SVG Export Plug-In . SVG Version: 6.00 Build 0)  -->
<svg version="1.1" id="Capa_1" xmlns="http://www.w3.org/2000/svg" xmlns:xlink="http://www.w3.org/1999/xlink" x="0px" y="0px"
	 viewBox="0 0 512 512" style="enable-background:new 0 0 512 512;" xml:space="preserve">
<g>
	<g>
		<path d="M102.882,0H29.927C13.425,0,0,13.424,0,29.925v452.149C0,498.574,13.425,512,29.927,512h72.955
			c4.78,0,8.656-3.876,8.656-8.656V8.656C111.538,3.876,107.662,0,102.882,0z M94.225,494.688H29.927
			c-6.956,0-12.614-5.658-12.614-12.613V29.925c0-6.954,5.658-12.612,12.614-12.612h64.299V494.688z"/>
	</g>
</g>
<g>
	<g>
		<path d="M486.305,41.224H451.52c-4.78,0-8.656,3.876-8.656,8.656v120.108c0,4.78,3.876,8.656,8.656,8.656h34.785
			c14.167,0,25.695-11.527,25.695-25.695V66.919C512,52.751,500.473,41.224,486.305,41.224z M494.686,152.95
			c0,4.622-3.761,8.382-8.383,8.382h-26.129V58.537h26.129c4.621,0,8.383,3.76,8.383,8.383V152.95z"/>
	</g>
</g>
<g>
	<g>
		<path d="M486.305,161.333H451.52c-4.78,0-8.656,3.876-8.656,8.656v120.107c0,4.78,3.876,8.656,8.656,8.656h34.784
			c14.168,0,25.696-11.527,25.696-25.695v-86.03C512,172.86,500.473,161.333,486.305,161.333z M494.686,273.058
			c0,4.621-3.761,8.382-8.384,8.382h-26.128V178.645h26.129c4.621,0,8.383,3.76,8.383,8.382V273.058z"/>
	</g>
</g>
<g>
	<g>
		<path d="M486.305,281.44H451.52c-4.78,0-8.656,3.876-8.656,8.656v120.107c0,4.78,3.876,8.656,8.656,8.656h34.785
			c14.167,0,25.695-11.527,25.695-25.695v-86.03C512,292.967,500.473,281.44,486.305,281.44z M494.686,393.165
			c0,4.621-3.761,8.383-8.383,8.383h-26.129V298.753h26.129c4.621,0,8.383,3.761,8.383,8.383V393.165z"/>
	</g>
</g>
<g>
	<g>
		<path d="M451.373,8.73c-0.001-0.001-0.002-0.002-0.002-0.002C445.72,3.1,438.22,0,430.249,0H102.883
			c-4.78,0-8.656,3.876-8.656,8.656v494.688c0,4.78,3.876,8.656,8.656,8.656h327.367c16.501,0,29.925-13.425,29.926-29.926V29.924
			C460.175,21.915,457.049,14.388,451.373,8.73z M442.862,482.075c0,6.954-5.657,12.612-12.612,12.612H111.539V17.313h318.71
			c3.358,0,6.518,1.307,8.9,3.679c2.395,2.386,3.714,5.558,3.714,8.932V482.075z"/>
	</g>
</g>
<g>
	<g>
		<path d="M415.984,357.93l-43.702-64.222c-2.396-3.519-6.173-5.947-10.365-6.663c-4.184-0.712-8.548,0.32-11.969,2.84
			c-5.521,4.063-10.509,7.616-14.787,10.528l-0.575,0.385c-3.946,2.692-4.965,8.072-2.279,12.021l52.655,77.378
			c1.367,2.006,3.511,3.348,5.914,3.696c0.413,0.061,0.829,0.09,1.242,0.09c1.983,0,3.922-0.683,5.478-1.952
			c6.621-5.411,12.266-10.318,15.834-13.482C419.327,373.322,420.425,364.457,415.984,357.93z M393.906,372.569l-42.461-62.398
			c2.356-1.671,4.841-3.466,7.443-5.372l42.003,61.727C398.99,368.201,396.618,370.264,393.906,372.569z"/>
	</g>
</g>
<g>
	<g>
		<path d="M376.1,395.613l-54.099-79.502c-1.843-2.707-5.056-4.141-8.302-3.71c-18.155,2.428-39.367-7.836-55.371-26.775
			c-21.707-25.691-30.188-61.744-20.164-85.728c1.129-2.7,0.816-5.788-0.831-8.207l-54.572-80.197
			c-2.593-3.81-7.715-4.92-11.653-2.527c-25.416,15.451-30.023,23.751-31.178,29.829c-10.245,53.878,31.953,140.013,75.496,197.245
			c41.258,54.228,85.266,87.004,120.74,89.923c0.46,0.039,0.947,0.062,1.466,0.062c5.694,0,15.272-2.752,36.492-18.61
			C377.836,404.644,378.706,399.442,376.1,395.613z M337.59,408.712c-0.001,0-0.001,0-0.002,0
			c-30.139-2.481-70.655-33.567-108.383-83.154c-49.634-65.237-80.016-142.339-72.288-183.416
			c0.203-0.507,2.243-4.724,16.241-13.988l47.342,69.573c-9.938,29.753-0.201,69.717,24.603,99.073
			c18.585,21.992,42.685,34.128,65.427,33.231l46.519,68.363C342.327,408.6,337.793,408.712,337.59,408.712z"/>
	</g>
</g>
<g>
	<g>
		<path d="M277.931,155.059L234.45,91.162c-4.377-6.435-12.936-8.711-19.914-5.297h-0.001c-4.311,2.112-11.04,5.496-18.616,9.624
			c-2.147,1.17-3.697,3.192-4.272,5.567c-0.575,2.375-0.118,4.883,1.257,6.903l52.541,77.213c1.674,2.461,4.394,3.787,7.164,3.787
			c1.666,0,3.35-0.48,4.835-1.481l0.145-0.1c4.415-3.003,9.675-6.4,15.64-10.1c3.623-2.248,6.208-5.928,7.091-10.096
			C281.203,163.009,280.334,158.591,277.931,155.059z M254.946,168.36l-42.295-62.156c3.325-1.721,6.186-3.156,8.254-4.178
			l41.791,61.414C259.962,165.145,257.375,166.787,254.946,168.36z"/>
	</g>
</g>
<g>
</g>
<g>
</g>
<g>
</g>
<g>
</g>
<g>
</g>
<g>
</g>
<g>
</g>
<g>
</g>
<g>
</g>
<g>
</g>
<g>
</g>
<g>
</g>
<g>
</g>
<g>
</g>
<g>
</g>
</svg>
